<svg width="300" height="300" viewBox="0 0 300 300" fill="none" xmlns="http://www.w3.org/2000/svg">
<circle cx="150" cy="150" r="148.5" stroke="black" stroke-width="3"/>
<path d="M82.424 153.976V110.968H76.6V109.944H94.776V110.968H88.952V153.976H94.776V155H76.6V153.976H82.424ZM114.487 153.976V110.968H113.143C101.751 110.968 99.191 112.696 99.191 123.192H98.167V109.944H137.335V123.192H136.311C136.311 112.696 133.751 110.968 122.423 110.968H121.015V153.976H127.607V155H107.895V153.976H114.487ZM146.485 153.976V110.968H140.853V109.944H174.965L175.733 120.824H174.709C174.709 113.464 169.845 110.968 163.061 110.968H153.013V131.576H157.813C164.469 131.576 165.109 127.544 165.109 123.384H166.133V140.408H165.109C165.109 135.544 164.469 132.6 157.749 132.6H153.013V153.976H161.781C172.149 153.976 177.141 152.76 177.141 141.88H178.165V155H140.853V153.976H146.485ZM190.452 153.976V110.968H184.052V109.944H203.701C211.061 109.944 219.061 111.608 219.061 121.272C219.061 129.08 210.037 131.128 205.365 131.704V131.832C212.725 132.472 216.629 134.072 217.589 142.52L218.485 150.328C218.933 154.104 220.725 154.36 221.812 154.36C222.965 154.36 223.797 153.976 224.437 153.72L224.821 154.552C223.541 155 221.941 155.384 219.573 155.384C211.765 155.384 211.317 151.224 210.42 143.864L209.972 140.024C209.524 135.992 208.373 132.344 201.141 132.344H196.981V153.976H203.509V155H184.052V153.976H190.452ZM196.981 110.968V131.32H200.181C207.733 131.32 212.149 128.696 212.149 121.272C212.149 116.152 210.42 110.968 201.333 110.968H196.981Z" fill="black"/>
<path d="M40.512 189.168V182.084H40.96C40.96 186.788 43.732 189 47.092 189C49.78 189 51.712 187.292 51.712 184.772C51.712 181.86 50.2 180.992 46.98 180.488C42.584 179.788 40.512 179.06 40.512 174.356C40.512 171.164 42.612 168.84 45.748 168.84C48.632 168.84 49.724 170.548 50.676 170.548C51.32 170.548 51.404 169.848 51.488 169.484H51.936V175.364H51.488C51.236 172.172 49.5 169.288 45.748 169.288C43.368 169.288 41.688 170.856 41.688 173.432C41.688 175.952 42.64 176.512 47.288 177.352C51.376 178.08 53.056 179.396 53.056 183.036C53.056 186.704 51.04 189.448 46.98 189.448C44.18 189.448 42.696 187.992 41.66 187.992C40.988 187.992 40.96 188.692 40.96 189.168H40.512ZM57.1346 188.552V177.968H54.9226V177.52H57.1346C58.4786 177.52 58.9826 177.52 59.4866 176.904V179.76H59.5426C60.2706 178.416 61.6706 176.904 63.7146 176.904C66.7106 176.904 67.5506 178.416 67.5506 180.068V188.552H69.7626V189H62.9866V188.552H65.1986V179.396C65.1986 177.856 64.4426 177.352 63.5466 177.352C61.1946 177.352 59.9906 179.704 59.4866 180.656V188.552H61.6146V189H54.9226V188.552H57.1346ZM73.8692 182.028V184.66C73.8412 186.648 74.1212 188.888 76.7532 188.888C79.1052 188.888 80.8412 187.32 81.2332 185.024H81.6812C81.2332 187.6 79.3292 189.336 76.7532 189.336C73.4772 189.336 71.1812 186.816 71.1812 183.12C71.1812 180.404 73.3652 176.904 76.4172 176.904C79.7212 176.904 81.4292 180.6 81.4292 181.776C81.4292 181.944 81.3452 182.028 81.1772 182.028H73.8692ZM78.7412 181.384V180.796C78.7412 179.004 78.2652 177.352 76.4172 177.352C74.4572 177.352 73.8692 179.004 73.8692 180.796V181.58H78.5452C78.6852 181.58 78.7412 181.496 78.7412 181.384ZM93.5626 184.968V181.692C93.5626 179.648 91.9666 177.352 89.6426 177.352C87.1786 177.352 86.7586 179.284 86.7586 183.12C86.7586 187.292 87.0946 188.888 89.8386 188.888C91.7426 188.888 93.5906 187.292 93.5626 184.968ZM93.5626 189V186.956H93.5066C93.0866 187.908 91.7706 189.336 89.8386 189.336C86.3386 189.336 84.0706 186.396 84.0706 183.12C84.0706 180.376 86.2826 176.904 89.6426 176.904C91.6586 176.904 93.0026 178.444 93.5066 179.76H93.5626V169.568H91.3226V169.12H93.5626C94.4586 169.12 95.3546 169.064 95.9146 168.42V188.552H97.8466V189H93.5626ZM100.693 188.552V169.568H98.4812V169.12H100.693C101.589 169.12 102.485 169.064 103.045 168.42V184.016L107.525 179.704C108.141 179.116 108.505 178.612 108.505 178.416C108.505 178.108 108.113 177.968 107.245 177.968H106.293V177.52H112.201V177.968H111.221C110.269 177.968 109.821 178.192 108.869 179.088L105.761 182.028L110.157 187.488C110.773 188.244 110.997 188.552 111.529 188.552H112.957V189H105.929V188.552H107.945L104.025 183.708L103.045 184.632V188.552H105.005V189H98.4812V188.552H100.693ZM117.428 182.028V184.66C117.4 186.648 117.68 188.888 120.312 188.888C122.664 188.888 124.4 187.32 124.792 185.024H125.24C124.792 187.6 122.888 189.336 120.312 189.336C117.036 189.336 114.74 186.816 114.74 183.12C114.74 180.404 116.924 176.904 119.976 176.904C123.28 176.904 124.988 180.6 124.988 181.776C124.988 181.944 124.904 182.028 124.736 182.028H117.428ZM122.3 181.384V180.796C122.3 179.004 121.824 177.352 119.976 177.352C118.016 177.352 117.428 179.004 117.428 180.796V181.58H122.104C122.244 181.58 122.3 181.496 122.3 181.384ZM128.833 188.552V177.968H126.481V177.52H128.833C129.729 177.52 130.625 177.464 131.185 176.904V180.208H131.241C131.577 178.948 132.557 176.904 134.853 176.904C135.889 176.904 136.701 177.576 136.701 178.556C136.701 179.284 136.253 179.872 135.413 179.872C134.489 179.872 134.181 179.396 134.181 178.64C134.181 178.024 134.489 177.604 134.797 177.436C134.685 177.352 134.545 177.352 134.405 177.352C133.257 177.352 131.185 179.172 131.185 182.812V188.552H133.733V189H126.481V188.552H128.833ZM156.777 173.684C156.777 171.976 155.685 171.024 154.257 171.024C152.997 171.024 152.185 171.892 152.185 173.18C152.185 174.468 153.277 176.12 154.145 177.436C155.601 176.764 156.777 175.336 156.777 173.684ZM165.345 185.192L165.709 185.332C164.925 187.04 163.805 189.336 161.621 189.336C160.473 189.336 158.681 188.048 157.001 185.752C155.825 187.404 153.893 189.336 151.709 189.336C149.217 189.336 147.033 187.152 147.033 184.66C147.033 182.056 149.917 180.068 151.961 178.92C151.205 177.716 150.001 176.008 150.001 174.552C150.001 172.312 151.821 170.576 154.033 170.576C155.965 170.576 157.225 171.78 157.225 173.656C157.225 175.644 156.021 176.82 154.397 177.8C155.685 179.648 157.001 181.468 158.373 183.26C159.325 182.056 160.641 179.592 162.377 179.592C163.329 179.592 164.141 180.208 164.141 181.412C164.141 182.336 163.525 182.952 162.573 182.952C161.705 182.952 161.257 182.28 161.257 181.608C161.257 181.104 161.173 180.908 160.977 180.908C160.725 180.908 159.521 182.168 158.625 183.652C160.025 185.444 161.593 187.32 163.133 187.32C164.225 187.32 165.093 185.78 165.345 185.192ZM149.385 182.868C149.385 184.716 151.345 187.656 153.389 187.656C155.069 187.656 155.797 186.62 156.721 185.36C155.125 183.372 153.669 181.272 152.185 179.228C150.589 180.264 149.385 180.768 149.385 182.868ZM180.772 188.552V169.736H180.184C175.2 169.736 174.08 170.492 174.08 175.084H173.632V169.288H190.768V175.084H190.32C190.32 170.492 189.2 169.736 184.244 169.736H183.628V188.552H186.512V189H177.888V188.552H180.772ZM192.844 186.06L199.004 179.564C198.724 178.248 197.968 177.352 195.98 177.352C192.844 177.352 192.732 179.592 192.732 182.028V184.212C192.732 184.856 192.76 185.472 192.844 186.06ZM199.144 180.152L192.928 186.676C193.208 187.964 193.964 188.888 195.98 188.888C199.116 188.888 199.228 186.648 199.228 184.212V182.028C199.228 181.384 199.228 180.74 199.144 180.152ZM189.932 189.112L191.612 187.348C190.604 186.228 190.044 184.688 190.044 183.12C190.044 179.9 192.368 176.904 195.98 176.904C197.632 176.904 198.976 177.52 199.984 178.556L201.664 176.792L202.028 177.128L200.348 178.892C201.356 180.012 201.916 181.524 201.916 183.12C201.916 186.34 199.592 189.336 195.98 189.336C194.328 189.336 192.928 188.72 191.948 187.712L190.296 189.448L189.932 189.112ZM203.344 189V188.552H205.556V177.968H203.344V177.52H205.556C206.9 177.52 207.404 177.52 207.908 176.904V179.648H207.964C208.72 178.276 209.896 176.904 211.996 176.904C213.788 176.904 215.58 177.408 215.832 179.9H215.888C216.448 178.304 217.848 176.876 219.948 176.904C222.804 176.932 223.756 178.556 223.756 180.32V188.552H225.968V189H219.192V188.552H221.404V179.816C221.404 177.8 220.508 177.352 219.444 177.352C217.82 177.352 216.392 179.116 215.832 181.076V188.552H217.96V189H211.268V188.552H213.48V179.284C213.48 177.884 212.78 177.352 211.66 177.352C209.98 177.352 208.72 178.668 207.908 180.656V188.552H210.036V189H203.344ZM229.048 188.552V177.968H226.696V177.52H229.048C229.944 177.52 230.84 177.464 231.4 176.904V180.208H231.456C231.792 178.948 232.772 176.904 235.068 176.904C236.104 176.904 236.916 177.576 236.916 178.556C236.916 179.284 236.468 179.872 235.628 179.872C234.704 179.872 234.396 179.396 234.396 178.64C234.396 178.024 234.704 177.604 235.012 177.436C234.9 177.352 234.76 177.352 234.62 177.352C233.472 177.352 231.4 179.172 231.4 182.812V188.552H233.948V189H226.696V188.552H229.048ZM240.693 182.028V184.66C240.665 186.648 240.945 188.888 243.577 188.888C245.929 188.888 247.665 187.32 248.057 185.024H248.505C248.057 187.6 246.153 189.336 243.577 189.336C240.301 189.336 238.005 186.816 238.005 183.12C238.005 180.404 240.189 176.904 243.241 176.904C246.545 176.904 248.253 180.6 248.253 181.776C248.253 181.944 248.169 182.028 248.001 182.028H240.693ZM245.565 181.384V180.796C245.565 179.004 245.089 177.352 243.241 177.352C241.281 177.352 240.693 179.004 240.693 180.796V181.58H245.369C245.509 181.58 245.565 181.496 245.565 181.384ZM252.099 188.552V177.968H249.747V177.52H252.099C252.995 177.52 253.891 177.464 254.451 176.904V180.208H254.507C254.843 178.948 255.823 176.904 258.119 176.904C259.155 176.904 259.967 177.576 259.967 178.556C259.967 179.284 259.519 179.872 258.679 179.872C257.755 179.872 257.447 179.396 257.447 178.64C257.447 178.024 257.755 177.604 258.063 177.436C257.951 177.352 257.811 177.352 257.671 177.352C256.523 177.352 254.451 179.172 254.451 182.812V188.552H256.999V189H249.747V188.552H252.099Z" fill="black"/>
</svg>
